<svg width="82" height="15" viewBox="0 0 82 15" fill="none" xmlns="http://www.w3.org/2000/svg">
    <path
        d="M10.04 12.7H5.04L4.28 15H0.16L5.3 0.899999H9.82L14.94 15H10.8L10.04 12.7ZM9.06 9.7L7.54 5.14L6.04 9.7H9.06ZM20.1377 12H24.5177V15H16.2177V0.899999H20.1377V12ZM37.1819 5.6C37.1819 6.45333 36.9819 7.23333 36.5819 7.94C36.1952 8.63333 35.6019 9.19333 34.8019 9.62C34.0152 10.0333 33.0485 10.24 31.9019 10.24H29.9619V15H26.0419V0.899999H31.9019C33.0352 0.899999 33.9952 1.1 34.7819 1.5C35.5819 1.9 36.1819 2.45333 36.5819 3.16C36.9819 3.86667 37.1819 4.68 37.1819 5.6ZM31.5219 7.12C32.6285 7.12 33.1819 6.61333 33.1819 5.6C33.1819 4.57333 32.6285 4.06 31.5219 4.06H29.9619V7.12H31.5219ZM51.3767 0.899999V15H47.4567V9.34H42.6767V15H38.7567V0.899999H42.6767V6.2H47.4567V0.899999H51.3767ZM62.54 12.7H57.54L56.78 15H52.66L57.8 0.899999H62.32L67.44 15H63.3L62.54 12.7ZM61.56 9.7L60.04 5.14L58.54 9.7H61.56ZM67.9577 4.06V0.38H74.1177V15H70.0177V4.06H67.9577ZM75.692 4.06V0.38H81.852V15H77.752V4.06H75.692Z"
        fill="url(#paint0_linear_14_2821)" />
    <defs>
        <linearGradient id="paint0_linear_14_2821" x1="42" y1="-7" x2="42" y2="23"
            gradientUnits="userSpaceOnUse">
            <stop stop-color="white" />
            <stop offset="1" stop-color="white" stop-opacity="0" />
        </linearGradient>
    </defs>
</svg>